<?xml version="1.0" encoding="UTF-8"?>
<svg xmlns="http://www.w3.org/2000/svg" xmlns:xlink="http://www.w3.org/1999/xlink" width="48pt" height="48pt" viewBox="0 0 48 48" version="1.1">
<g id="surface10153277">
<path style=" stroke:none;fill-rule:nonzero;fill:rgb(0%,51.764706%,100%);fill-opacity:1;" d="M 11.84375 5.902344 C 11.066406 5.964844 10.367188 6.476562 10.105469 7.265625 L 7.367188 15.472656 C 7.015625 16.519531 7.585938 17.648438 8.632812 18 C 9.679688 18.351562 10.808594 17.78125 11.160156 16.734375 L 12.070312 14 L 13.988281 14 L 13.988281 20.445312 C 13.988281 21.691406 13.929688 22.863281 13.839844 24 L 10 24 C 9.277344 23.988281 8.609375 24.367188 8.246094 24.992188 C 7.878906 25.613281 7.878906 26.386719 8.246094 27.007812 C 8.609375 27.632812 9.277344 28.011719 10 28 L 13.273438 28 C 12.316406 32.519531 10.320312 35.976562 6.835938 38.378906 C 5.996094 38.957031 5.757812 40.097656 6.265625 40.984375 C 6.851562 42.007812 8.191406 42.308594 9.160156 41.636719 C 12.199219 39.539062 14.339844 36.796875 15.761719 33.441406 C 15.585938 34.046875 15.707031 34.699219 16.089844 35.203125 L 19.023438 39.1875 C 19.679688 40.078125 20.929688 40.269531 21.820312 39.613281 C 22.710938 38.957031 22.902344 37.707031 22.246094 36.816406 L 19.3125 32.832031 C 18.917969 32.277344 18.265625 31.960938 17.585938 31.996094 C 16.929688 32.03125 16.328125 32.382812 15.984375 32.945312 C 16.582031 31.425781 17.015625 29.765625 17.339844 28 L 20 28 C 20.722656 28.011719 21.390625 27.632812 21.753906 27.007812 C 22.121094 26.386719 22.121094 25.613281 21.753906 24.992188 C 21.390625 24.367188 20.722656 23.988281 20 24 L 17.863281 24 C 17.945312 22.855469 17.988281 21.675781 17.988281 20.445312 L 17.988281 14 L 20 14 C 20.722656 14.011719 21.390625 13.632812 21.753906 13.007812 C 22.121094 12.386719 22.121094 11.613281 21.753906 10.992188 C 21.390625 10.367188 20.722656 9.988281 20 10 L 13.402344 10 L 13.894531 8.527344 C 14.246094 7.480469 13.679688 6.351562 12.632812 6 C 12.371094 5.914062 12.101562 5.882812 11.84375 5.902344 Z M 28 10 C 26.894531 10 26 10.894531 26 12 L 26 34 C 26 35.105469 26.894531 36 28 36 L 30 36 L 30 40 C 30 40.808594 30.488281 41.539062 31.234375 41.847656 C 31.980469 42.15625 32.84375 41.984375 33.414062 41.414062 L 38.828125 36 L 42 36 C 43.105469 36 44 35.105469 44 34 L 44 12 C 44 10.894531 43.105469 10 42 10 Z M 30 14 L 40 14 L 40 32 L 38 32 C 37.46875 32 36.960938 32.210938 36.585938 32.585938 L 34 35.171875 L 34 34 C 34 32.894531 33.105469 32 32 32 L 30 32 Z M 30 14 "/>
</g>
</svg>
